# xmcd
#
# Track frame offsets: 
#        183
#        11978
#        28320
#        41400
#        52618
#        63753
#        75588
#        86508
#        99705
#        110703
#        124415
#        138350
#        150713
#        161005
#        171068
#        184535
#        197353
#        220203
#        253625
#        280228
#        292920
#        305763
#        318770
#
# Disc length: 4425 seconds
#
# Revision: 6
# Processed by: cddbd v1.5.2PL0 Copyright (c) Steve Scherf et al.
# Submitted via: ExactAudioCopyFreeDBPlugin 1.0
#
DISCID=3b114717
DTITLE=Various Artist - The Great Tomato Blues Package
DYEAR=1989
DGENRE=Blues
TTITLE0=Ike and Tina Turner - Poor Fool
TTITLE1=B.B. King - The Other Night Blues
TTITLE2=Brownie McGhee - The Blues Had a Baby
TTITLE3=Bo Diddley - Bo Diddley
TTITLE4=Little Richard - Lucille
TTITLE5=Etta James - I'd Rather Go Blind
TTITLE6=Wilbert Harrison - Kansas City
TTITLE7=Muddy Waters - Mannish Boy
TTITLE8=Jimmy Reed - Take Out Some Insurance
TTITLE9=Koko Taylor - Wang Dang Doodle
TTITLE10=Chuck Berry - In the Wee Wee Hours
TTITLE11=`Fats' Domino - Blue Monday
TTITLE12=Don Garner and Dee Dee Ford - I Need Your Lovin'
TTITLE13=Irma Thomas - Wish Someone Would Care
TTITLE14=Percy Sledge - When a Man Needs a Woman
TTITLE15=Carl Perkins - Honey Don't
TTITLE16=Jerry Lee Lewis - Whole Lotta Shakin' Goin' On
TTITLE17=John Lee Hooker - Tupelo
TTITLE18=Arthur "Big Boy" Crudup - That's All Right
TTITLE19=Rocky Hill and Johnny Winter - Bad Girl Blues
TTITLE20=Townes Van Zandt - Nothin'
TTITLE21=Mississippi John Hurt - Hot Time in Old Town
TTITLE22=Leadbelly - Midnight Special
EXTD=
EXTT0=
EXTT1=
EXTT2=
EXTT3=
EXTT4=
EXTT5=
EXTT6=
EXTT7=
EXTT8=
EXTT9=
EXTT10=
EXTT11=
EXTT12=
EXTT13=
EXTT14=
EXTT15=
EXTT16=
EXTT17=
EXTT18=
EXTT19=
EXTT20=
EXTT21=
EXTT22=
PLAYORDER=
